<svg width="181" height="50" viewBox="0 0 181 50" fill="none" xmlns="http://www.w3.org/2000/svg">
<circle cx="177" cy="35" r="4" fill="url(#paint0_linear_57:3)"/>
<path d="M5.4 39L0.56 12.92H6.6L8.4 25.12C8.56 26.48 8.73333 27.8533 8.92 29.24C9.10667 30.6 9.28 31.9733 9.44 33.36H9.6C9.86667 31.9733 10.12 30.6 10.36 29.24C10.6267 27.8533 10.8933 26.48 11.16 25.12L13.96 12.92H18.96L21.76 25.12C22.0267 26.4533 22.28 27.8133 22.52 29.2C22.7867 30.56 23.0533 31.9467 23.32 33.36H23.48C23.6667 31.9467 23.84 30.56 24 29.2C24.1867 27.84 24.3733 26.48 24.56 25.12L26.36 12.92H32L27.36 39H19.96L17.4 27.16C17.1867 26.1467 16.9867 25.1333 16.8 24.12C16.64 23.08 16.4933 22.08 16.36 21.12H16.2C16.04 22.08 15.8667 23.08 15.68 24.12C15.52 25.1333 15.3333 26.1467 15.12 27.16L12.68 39H5.4ZM40.7391 25.8L40.0991 28.2H45.6591L45.0591 25.8C44.6857 24.4933 44.3257 23.1067 43.9791 21.64C43.6324 20.1733 43.2857 18.76 42.9391 17.4H42.7791C42.4591 18.7867 42.1257 20.2133 41.7791 21.68C41.4591 23.12 41.1124 24.4933 40.7391 25.8ZM31.2991 39L39.4591 12.92H46.5391L54.6991 39H48.4591L46.8591 32.8H38.8991L37.2991 39H31.2991ZM56.5488 39V12.92H62.4288V34.04H72.7488V39H56.5488ZM76.2519 39V12.92H82.1319V34.04H92.4519V39H76.2519ZM95.955 39V12.92H112.395V17.88H101.835V23.92H110.875V28.88H101.835V39H95.955ZM120.489 25.8L119.849 28.2H125.409L124.809 25.8C124.436 24.4933 124.076 23.1067 123.729 21.64C123.382 20.1733 123.036 18.76 122.689 17.4H122.529C122.209 18.7867 121.876 20.2133 121.529 21.68C121.209 23.12 120.862 24.4933 120.489 25.8ZM111.049 39L119.209 12.92H126.289L134.449 39H128.209L126.609 32.8H118.649L117.049 39H111.049ZM136.299 39V12.92H142.179V39H136.299ZM147.33 39V12.92H156.73C158.117 12.92 159.41 13.0533 160.61 13.32C161.837 13.5867 162.903 14.04 163.81 14.68C164.717 15.2933 165.437 16.12 165.97 17.16C166.503 18.2 166.77 19.4933 166.77 21.04C166.77 22.96 166.343 24.5467 165.49 25.8C164.663 27.0267 163.543 27.9467 162.13 28.56L168.05 39H161.45L156.45 29.6H153.21V39H147.33ZM153.21 24.92H156.25C157.797 24.92 158.97 24.6 159.77 23.96C160.597 23.2933 161.01 22.32 161.01 21.04C161.01 19.76 160.597 18.8667 159.77 18.36C158.97 17.8533 157.797 17.6 156.25 17.6H153.21V24.92Z" fill="white"/>
<defs>
<linearGradient id="paint0_linear_57:3" x1="173.75" y1="32" x2="180" y2="37.75" gradientUnits="userSpaceOnUse">
<stop stop-color="#DD4279"/>
<stop offset="1" stop-color="#3A49D1"/>
</linearGradient>
</defs>
</svg>
